<svg width="32" height="16" viewBox="0 0 32 16" fill="none" xmlns="http://www.w3.org/2000/svg">
<rect width="32" height="16" rx="8" fill="#F6F6F9"/>
<path d="M12.3867 11.8319L13.687 4.25293H15.7188L14.4591 11.8319H12.3867Z" fill="#062E7C"/>
<path d="M21.8141 4.33684C21.4078 4.16842 20.7576 4 19.9449 4C17.9131 4 16.4503 5.05263 16.4503 6.56842C16.4503 7.70526 17.4661 8.29474 18.2788 8.67368C19.0915 9.05263 19.3354 9.30526 19.3354 9.6421C19.3354 10.1474 18.6852 10.4 18.1163 10.4C17.3036 10.4 16.8566 10.2737 16.1658 9.97895L15.8814 9.85263L15.5969 11.5789C16.0845 11.7895 16.9785 12 17.9131 12C20.0668 12 21.489 10.9474 21.489 9.34737C21.489 8.46316 20.9608 7.78947 19.7417 7.2421C19.0103 6.86316 18.5633 6.65263 18.5633 6.27368C18.5633 5.93684 18.929 5.6 19.7417 5.6C20.4325 5.6 20.9201 5.72632 21.2858 5.89474L21.489 5.97895L21.8141 4.33684Z" fill="#062E7C"/>
<path d="M25.3083 4.25293C24.8206 4.25293 24.4549 4.29504 24.2517 4.8003L21.2041 11.8319H23.3984L23.8048 10.5687H26.4054L26.6492 11.8319H28.5997L26.893 4.25293H25.3083ZM24.3736 9.30556C24.4956 8.92661 25.1863 7.07398 25.1863 7.07398C25.1863 7.07398 25.3489 6.61083 25.4708 6.31609L25.5927 7.03188C25.5927 7.03188 25.9991 8.92662 26.0803 9.34767H24.3736V9.30556Z" fill="#062E7C"/>
<path d="M8.64798 9.55808L8.4448 8.46334C8.07909 7.20018 6.90067 5.81071 5.60034 5.13703L7.42892 11.8739H9.62322L12.9147 4.29492H10.7204L8.64798 9.55808Z" fill="#062E7C"/>
<path d="M3 4.25293L3.36572 4.33714C5.96637 4.96872 7.75431 6.56872 8.44511 8.46346L7.71368 4.88451C7.59177 4.37925 7.22606 4.25293 6.77907 4.25293H3Z" fill="#FAA61A"/>
</svg>
